<?xml version="1.0" encoding="utf-8"?>
<!-- Generator: Adobe Illustrator 25.3.1, SVG Export Plug-In . SVG Version: 6.00 Build 0)  -->
<svg version="1.1" id="Layer_1" xmlns="http://www.w3.org/2000/svg" xmlns:xlink="http://www.w3.org/1999/xlink" x="0px" y="0px"
	 viewBox="0 0 288 560" style="enable-background:new 0 0 288 560;" xml:space="preserve">
<g>
	<g>
		<path d="M26.49,87.7c0.92,3.28,3.77,5.4,7.02,6.08c3.64,0.76,7.16-0.1,10.31-2c3.66-2.21,6.54-5.43,10.04-7.85
			c3.31-2.29,7.89-4.18,11.74-2.1c1.46,0.79,3.09-1.15,1.82-2.36c-1.9-1.81-4.48-2.33-7.01-1.81c-2.7,0.56-4.86,2.45-6.43,4.63
			c-2.89,3.98-5.79,11.4-0.42,14.75c4.84,3.02,10.66-2.87,13-6.63c2.67-4.29,3.89-9.38,4.6-14.34c1.11-7.68,1.52-15.44,1.25-23.2
			c-0.05-1.45-2.03-2.08-2.8-0.76c-3.83,6.68-5.26,14.3-5.61,21.91c-0.18,3.93-0.08,7.86,0.1,11.79c0.15,3.29-0.05,7.12,1.65,10.08
			c1.78,3.1,5.59,4.04,8.83,2.83c3.4-1.27,5.62-4.36,7.37-7.39c1.02-1.77,1.89-3.63,2.63-5.54c0.62-1.6,1.3-3.36,1.26-5.11
			c-0.08-3.55-3.53-5.16-6.48-3.41c-3.07,1.83-4.58,5.74-5.26,9.08c-0.38,1.86-0.54,3.78-0.4,5.67c0.13,1.8,0.39,3.77,1.69,5.14
			c2.31,2.44,6.67,2.98,9.83,2.61c3.42-0.4,6.68-1.89,9.06-4.41c2.38-2.51,3.81-5.79,4.12-9.22c0.25-2.79-0.39-6.91-3.63-7.71
			c-3.53-0.87-5.78,3.6-6.73,6.25c-1.22,3.37-1.28,7.27-0.11,10.66c0.51,1.47,1.25,3.18,2.86,3.69c1.77,0.56,3.36-0.72,4.67-1.73
			c2.85-2.2,5.26-4.98,7-8.13c0.85-1.55,1.47-3.18,2.08-4.84c0.49-1.34,1.34-2.66,2.92-2.01c3.19,1.32,3.73,5.61,3.17,8.57
			c-0.34,1.81-1.08,3.43-2.15,4.92c-0.9,1.24,0.84,2.8,2.05,2.05c1.71-1.05,3.41-2.1,5.12-3.16c-0.61-0.08-1.21-0.16-1.82-0.23
			c2.66,3.32,1.83,8.08,0.22,11.66c-1.99,4.41-4.84,8.5-7.33,12.63c-1.01,1.68-2.05,4.15-3.91,5.06c-1.51,0.74-3.14-0.07-2.5-1.85
			c0.66-1.83,2.84-2.41,4.5-2.93c1.68-0.53,3.33-1.13,4.92-1.91c12.52-6.08,19.17-19.39,29.07-28.53c1.35-1.24,2.75-2.42,4.25-3.47
			c0.8-0.56,1.62-1.09,2.46-1.58c0.72-0.42,1.78-1.22,2.63-1.28c1.09-0.07,1.34,1.83,1.54,2.64c0.3,1.21,0.46,2.45,0.49,3.7
			c0.06,2.65-0.43,5.29-1.51,7.72c0.93,0.25,1.86,0.5,2.8,0.76c-0.63-5.85,2.84-11.82,8.44-13.86c-0.62-0.35-1.23-0.7-1.85-1.05
			c1.49,5.07,1.94,10.31,1.38,15.57c-0.1,0.9,1.05,1.8,1.9,1.45c7.45-3.08,13.22-9.22,15.73-16.89c-0.96-0.27-1.93-0.53-2.89-0.8
			c-1.68,5.39-2.68,10.95-3.05,16.59c-0.09,1.38,1.66,1.86,2.56,1.06c4.78-4.24,8.03-10.07,9.08-16.37
			c-0.98-0.13-1.96-0.27-2.95-0.4c-0.5,4.95-0.2,9.9,0.83,14.77c0.26,1.21,1.7,1.31,2.51,0.66c13.12-10.58,14.36-28.6,15.03-44.15
			c0.07-1.73-2.47-1.98-2.95-0.4c-3.07,10.15-4.82,20.71-5.15,31.31c-0.08,2.7-0.08,5.4,0.02,8.09c0.07,1.87,0.13,4.01,1.62,5.36
			c3.58,3.25,8.52-2.53,10.55-5.07c3.15-3.95,5.31-8.6,6.18-13.59c-0.96,0-1.93,0-2.89,0c0.78,2.95,2.43,5.5,3.77,8.2
			c1.12,2.26,1.85,4.69,1.15,7.19c-0.56,2.03-2.26,3.66-4.49,2.96c-2.44-0.77-4.07-3.49-4.91-5.75c-0.48,0.63-0.96,1.27-1.45,1.9
			c4.81-0.54,9.83,1.21,14.51-0.5c3.44-1.25,6.22-3.99,7.72-7.31c1.51-3.35,1.77-7.16,0.32-10.58c-1.6-3.76-4.86-6.62-8.52-8.32
			c-4.46-2.07-9.39-2.54-14.25-2.67c-5.33-0.14-10.65-0.18-15.97-0.47c-10.59-0.59-21.14-1.88-31.46-4.36
			c-10-2.41-19.81-5.53-30.22-5.31c-9.2,0.2-18.53,2.28-27.72,0.92c-4.41-0.65-8.49-2.24-12.07-4.9c-3.51-2.61-6.52-5.86-10.2-8.26
			c-8.12-5.3-18.27-3.88-26.41,0.63c-4.22,2.34-7.98,5.42-11.57,8.62c-3.48,3.1-7.17,6.2-9.93,9.99c-4.7,6.44-4.83,15.46-0.74,22.25
			c0.99,1.64,2.22,3.12,3.65,4.39c1.44,1.28,3.57-0.84,2.12-2.12c-5.35-4.76-7.26-12.92-4.44-19.55c1.71-4.03,5.1-7.01,8.25-9.91
			c3.31-3.04,6.64-6.1,10.34-8.67c7.08-4.92,16.75-8.44,25.04-4.29c3.64,1.82,6.55,4.72,9.63,7.32c3.22,2.73,6.65,4.98,10.7,6.29
			c8.23,2.65,17.12,1.48,25.55,0.77c4.37-0.37,8.76-0.66,13.14-0.35c4.93,0.35,9.76,1.44,14.54,2.65c4.73,1.2,9.44,2.5,14.23,3.48
			c4.84,1,9.73,1.75,14.64,2.33c9.94,1.16,19.86,1.25,29.84,1.6c4.5,0.16,9.14,0.68,13.14,2.92c3.17,1.78,6.01,4.69,6.59,8.41
			c0.49,3.16-0.71,6.55-2.83,8.9c-2.84,3.13-6.5,3.58-10.54,3.29c-2.36-0.17-4.71-0.43-7.07-0.16c-0.88,0.1-1.82,0.89-1.45,1.9
			c1.12,3.05,3.1,6.19,6.19,7.53c2.97,1.29,6.31,0.24,8.03-2.49c1.56-2.48,1.69-5.85,0.84-8.6c-1.17-3.74-3.78-6.85-4.79-10.65
			c-0.36-1.35-2.63-1.51-2.89,0c-0.67,3.82-2.08,7.42-4.24,10.64c-0.76,1.13-6.46,8.48-7.81,6.3c-0.37-0.59-0.35-1.47-0.38-2.13
			c-0.05-1.19-0.08-2.38-0.1-3.57c-0.03-2.3,0.01-4.6,0.11-6.9c0.21-4.54,0.67-9.07,1.41-13.56c0.85-5.17,2.05-10.27,3.57-15.29
			c-0.98-0.13-1.96-0.27-2.95-0.4c-0.63,14.8-1.65,31.95-14.15,42.03c0.84,0.22,1.67,0.44,2.51,0.66c-0.97-4.6-1.2-9.29-0.72-13.97
			c0.17-1.67-2.67-2.07-2.95-0.4c-0.97,5.85-3.86,11.11-8.3,15.05c0.85,0.35,1.71,0.71,2.56,1.06c0.35-5.37,1.34-10.65,2.94-15.79
			c0.58-1.85-2.29-2.62-2.89-0.8c-2.16,6.58-7.22,12.14-13.64,14.8c0.63,0.48,1.27,0.96,1.9,1.45c0.59-5.5,0.07-11.06-1.48-16.37
			c-0.21-0.73-1.07-1.33-1.85-1.05c-6.77,2.46-11.42,9.51-10.64,16.75c0.14,1.29,2.12,2.28,2.8,0.76
			c2.13-4.81,2.67-10.54,0.77-15.53c-0.87-2.31-2.76-3.65-5.24-2.77c-1.97,0.7-3.84,1.98-5.53,3.18
			c-6.63,4.74-11.61,11.26-16.8,17.45c-5.04,6.01-10.61,12.29-18.12,15.17c-3.74,1.44-9.56,2.52-9.2,7.79
			c0.15,2.23,1.95,3.84,4.15,3.96c2.27,0.12,4.16-1.19,5.5-2.91c1.94-2.49,3.41-5.42,5.04-8.13c1.59-2.63,3.29-5.24,4.6-8.02
			c2.39-5.05,3.21-11.07-0.5-15.7c-0.4-0.5-1.3-0.55-1.82-0.23c-1.71,1.05-3.41,2.1-5.12,3.16c0.68,0.68,1.37,1.37,2.05,2.05
			c3.26-4.51,4.18-11.99-0.13-16.18c-1.76-1.71-4.4-2.72-6.68-1.37c-2.53,1.5-2.93,5.12-4.21,7.53c-1.36,2.56-3.17,4.84-5.35,6.76
			c-0.56,0.49-2.53,2.45-3.23,1.9c-0.42-0.33-0.63-1.31-0.78-1.79c-0.25-0.81-0.44-1.65-0.53-2.49c-0.31-2.88,0.31-5.84,1.8-8.33
			c0.42-0.7,1.4-2.52,2.43-1.85c0.95,0.62,1.06,2.35,1.07,3.34c0.06,5.81-4.16,10.89-9.88,11.88c-1.36,0.23-2.8,0.23-4.15-0.01
			c-1.37-0.25-3.39-0.7-4.15-1.98c-0.65-1.1-0.62-2.73-0.63-3.96c-0.01-1.71,0.22-3.4,0.69-5.04c0.41-1.45,0.99-2.95,1.84-4.21
			c0.51-0.76,1.81-2.24,2.88-2.02c2.2,0.44-0.73,6.42-1.19,7.39c-1.29,2.79-2.9,5.89-5.33,7.87c-1.98,1.62-5.35,2.39-7.04-0.06
			c-0.86-1.25-1.07-2.9-1.18-4.37c-0.14-1.77-0.2-3.56-0.27-5.34c-0.15-3.57-0.22-7.15-0.07-10.72c0.3-7.16,1.6-14.33,5.21-20.61
			c-0.93-0.25-1.86-0.5-2.8-0.76c0.19,5.62,0.04,11.26-0.49,16.86c-0.44,4.61-1.03,9.27-2.47,13.69c-1.2,3.69-3.13,7.4-6.34,9.73
			c-1.61,1.17-4.19,2.66-5.76,0.63c-1.48-1.92-0.7-4.54,0.22-6.53c1.03-2.23,2.4-4.56,4.54-5.88c1.87-1.15,4.5-1.39,6.18,0.21
			c0.61-0.79,1.21-1.57,1.82-2.36c-3.59-1.94-7.62-1.47-11.24,0.12c-3.82,1.68-6.79,4.59-9.96,7.21c-2.77,2.29-5.93,4.5-9.67,4.49
			c-2.84-0.01-6.03-1.2-6.86-4.17C28.86,85.05,25.96,85.84,26.49,87.7L26.49,87.7z"/>
	</g>
</g>
</svg>
