<?xml version="1.0" encoding="UTF-8" standalone="no"?>
<!-- Created with Inkscape (http://www.inkscape.org/) -->

<svg
   width="210mm"
   height="297mm"
   viewBox="0 0 210 297"
   version="1.1"
   id="svg5"
   inkscape:version="1.1.1 (3bf5ae0d25, 2021-09-20)"
   sodipodi:docname="nuts2.svg"
   xmlns:inkscape="http://www.inkscape.org/namespaces/inkscape"
   xmlns:sodipodi="http://sodipodi.sourceforge.net/DTD/sodipodi-0.dtd"
   xmlns="http://www.w3.org/2000/svg"
   xmlns:svg="http://www.w3.org/2000/svg">
  <sodipodi:namedview
     id="namedview7"
     pagecolor="#ffffff"
     bordercolor="#666666"
     borderopacity="1.0"
     inkscape:pageshadow="2"
     inkscape:pageopacity="0.0"
     inkscape:pagecheckerboard="0"
     inkscape:document-units="mm"
     showgrid="false"
     inkscape:zoom="1.2646927"
     inkscape:cx="396.53902"
     inkscape:cy="307.97996"
     inkscape:window-width="2560"
     inkscape:window-height="1369"
     inkscape:window-x="-8"
     inkscape:window-y="-8"
     inkscape:window-maximized="1"
     inkscape:current-layer="layer1" />
  <defs
     id="defs2" />
  <g
     inkscape:label="Layer 1"
     inkscape:groupmode="layer"
     id="layer1">
    <path
       style="fill:none;stroke:#000000;stroke-width:0.264583px;stroke-linecap:butt;stroke-linejoin:miter;stroke-opacity:1"
       d="m 22.176006,82.427796 c 3.711109,-1.109012 6.875442,-3.212555 10.251173,-5.020982 2.250343,-1.20554 4.620358,-2.205575 6.90385,-3.347321 1.79265,-0.896323 3.197027,-1.814827 5.230191,-2.092076 1.320085,-0.180012 2.646566,-0.316232 3.974944,-0.418415 0.764836,-0.05884 1.534189,0 2.301284,0 0.209209,0 0.814745,0.09356 0.627624,0 -1.253675,-0.626837 -5.762223,-0.965332 -7.113058,-0.627623 -1.447755,0.361937 -3.571865,3.592311 -4.184153,5.020982 -0.05494,0.128196 0.06237,0.293669 0,0.418415 -0.224893,0.449783 -0.677809,0.778179 -0.836832,1.255247 -0.137544,0.41263 0,1.973963 0,2.510491 0,0.418414 -0.261382,0.928518 0,1.255244 0.624197,0.780245 1.350253,0.780888 2.301285,0.836832 2.559312,0.150548 2.777165,-0.486807 4.811776,-1.673662 4.295486,-2.505702 4.583591,-4.7675 6.485435,-9.205134 1.906346,-4.448143 2.789753,-6.629376 3.138114,-11.50642 0.09515,-1.332074 0.209206,-2.475267 0.209206,-3.765735 0,-0.09141 0.0953,-1.369158 0,-1.464453 -0.380693,-0.380693 -0.666811,0.853538 -1.046038,1.882868 -1.26882,3.443943 -1.313328,2.829957 -2.092076,7.113058 -0.150215,0.826185 -0.06327,1.683539 -0.209206,2.510491 -0.540062,3.060348 -0.397219,-1.154769 -0.627624,2.301285 -0.06958,1.04372 0.104085,2.097267 0,3.138114 -0.235003,2.350038 -0.930116,4.693111 -0.627623,7.113059 0.102005,0.816033 0.774835,1.491559 1.255247,2.092076 0.486582,0.608227 1.442863,1.369073 2.301282,1.464453 1.205558,0.13395 6.692133,0.559562 7.531476,0 0.574405,-0.382937 0.948478,-1.005811 1.464453,-1.464453 2.454341,-2.181638 3.974943,-5.218959 3.974943,-8.577514 0,-1.381749 0.296233,-2.719697 -1.464452,-2.719697 -0.435439,0 -1.122088,0.0038 -1.464453,0.209206 -0.223258,0.133956 -1.672328,0.984552 -1.882868,1.255247 -0.345175,0.443796 -0.514413,1.003858 -0.836832,1.464453 -0.169667,0.242382 -0.483939,0.36899 -0.627623,0.627623 -0.939184,1.690529 -1.392513,6.557375 0.209208,8.159097 1.562444,1.562441 4.040368,1.791829 6.06702,2.092076 2.083292,0.308636 4.183727,0.28534 6.276229,0 0.913903,-0.124624 1.470377,-1.641298 1.882868,-2.301285 0.340754,-0.545206 0.931291,-0.9091 1.255247,-1.464453 2.575311,-4.414819 -0.381717,0.135813 1.255244,-3.138114 0.810794,-1.621587 0.09497,1.230471 0.627623,-1.255244 0.23916,-1.116071 1.004266,-5.062757 0,-6.067021 -0.37647,-0.376473 -1.482794,0.973437 -2.301282,1.882868 -1.100966,1.223293 -2.211822,3.048823 -2.928909,4.393359 -0.364114,0.682715 -1.07574,5.649253 -0.836829,6.485437 0.115422,0.403979 1.099577,2.118844 1.464453,2.301282 1.110874,0.555438 2.802334,0.823058 3.974944,0.627624 0.248015,-0.04134 0.394171,-0.325036 0.627623,-0.418415 1.698062,-0.679225 3.571573,-1.231455 4.811776,-2.7197 0.141176,-0.16941 0.110585,-0.430379 0.209206,-0.627623 0.493046,-0.986089 1.3428,-1.707065 1.88287,-2.719697 0.714211,-1.339149 0.53204,-1.768351 1.673659,-2.7197 0.246367,-0.205306 4.647319,-3.302571 5.230191,-2.719699 0.268896,0.268896 0.405143,1.331719 0.418415,1.464452 0.08327,0.832679 0.149698,1.687161 0,2.510491 -0.05579,0.30684 -0.287724,0.553668 -0.418415,0.836833 -0.761677,1.650301 -1.565661,3.578436 -2.719697,5.020982 -0.308044,0.38505 -0.737997,0.660987 -1.046038,1.046038 -2.079586,2.599478 0.605605,-0.18719 -1.255247,1.673661 -0.06974,0.06974 -0.110585,0.209206 -0.209209,0.209206 -0.544652,0 0.660911,-0.870116 1.046038,-1.255244 1.934872,-1.934871 3.510817,-4.272055 6.485438,-4.602567 0.277236,-0.03081 0.639588,-0.197244 0.836829,0 2.053593,2.053592 1.356045,7.445896 0.836832,10.041964 -0.26816,1.340797 -0.997767,2.691558 -1.464455,3.974944 -0.870516,2.393923 -2.262336,5.813999 -3.974944,7.740683 -2.024017,2.27702 1.226045,-2.332084 -1.464453,1.25525 -0.187121,0.24949 -0.209785,0.60502 -0.418415,0.83682 -1.043458,1.1594 -2.529472,2.48109 -3.974943,3.13812 -0.323713,0.14714 -0.715889,0.0772 -1.046039,0.20921 -0.250711,0.10028 -1.133234,0.89783 -1.673661,0.62762 -1.471769,-0.73588 -2.007113,-3.66762 -1.255247,-5.02098 0.455631,-0.82014 1.268413,-1.38309 1.88287,-2.09208 0.292444,-0.33743 0.485717,-0.770162 0.83683,-1.046038 0.639477,-0.502444 1.415409,-0.804132 2.092076,-1.255244 2.104454,-1.402969 4.112583,-2.861927 6.276229,-4.184153 1.075629,-0.657328 2.288299,-1.208944 3.34732,-1.882867 0.376719,-0.239731 0.658344,-0.615291 1.046038,-0.836832 0.596326,-0.340757 1.255247,-0.557888 1.882868,-0.83683 0.557887,-0.418415 1.085328,-0.880851 1.673658,-1.255247 0.18605,-0.118393 0.44414,-0.08688 0.62763,-0.209206 2.27856,-1.519041 3.96662,-3.54821 5.85781,-5.439399 1.01433,-1.014333 2.12715,-1.917938 3.13811,-2.928906 1.74981,-1.749811 3.39372,-3.872531 4.81178,-5.857811 0.87602,-1.226434 2.49271,-3.861454 3.97494,-4.60257 0.21235,-0.106172 0.9606,0.123772 1.04604,0.209209 1.5064,1.5064 1.46445,3.255745 1.46445,5.23019 0,0.557887 0.10941,1.126607 0,1.673662 -0.41629,2.081482 -3.48826,5.621239 -4.60256,7.531473 -0.50306,0.862385 -0.62263,2.311281 -0.83683,1.882867 -0.0936,-0.187121 -0.0507,-0.424661 0,-0.62762 0.23004,-0.920192 0.41264,-1.871327 0.83683,-2.7197 0.88635,-1.772706 2.61194,-3.924948 3.97494,-5.439399 0.39585,-0.439828 0.89196,-0.788162 1.25525,-1.255245 0.61747,-0.793887 1.06044,-1.713314 1.67366,-2.510491 0.32587,-0.423635 2.28313,-1.712351 2.51049,-1.88287 0.40118,-0.300889 1.51537,-1.125183 2.09208,-0.836829 1.02136,0.510683 0.83683,2.088401 0.83683,2.928905 0,2.121562 -0.005,4.20877 -0.41842,6.276229 -0.0645,0.322355 -1.54045,4.450567 -1.46445,4.602568 0.0936,0.187121 0.42646,0.05747 0.62762,0 2.34859,-0.671026 4.97161,-2.204533 6.48544,-4.184153 1.04146,-1.361908 1.06811,-3.0119 1.25524,-4.602567 0.15947,-1.355447 0.1461,-1.596147 0.62762,-2.719697 0.12285,-0.286653 0.34278,-1.139389 0.41842,-0.836832 0.47717,1.908701 -0.29149,6.97915 -0.62762,8.995928 -0.19022,1.141296 -1.22256,3.648057 -0.41842,4.184153 0.49914,0.332758 1.05514,-0.607486 1.46446,-1.046039 0.72417,-0.775901 3.74908,-4.159178 4.18415,-4.811775 0.3305,-0.495756 0.38107,-1.131245 0.62762,-1.673662 0.45168,-0.993701 1.02114,-1.931445 1.46445,-2.928906 0.42737,-0.961572 0.59058,-2.153092 0.83683,-3.138114 0.0654,-0.261403 0.38916,-2.334919 0.20921,-1.255247 -0.0924,0.55458 -0.0872,1.124823 -0.20921,1.673662 -0.43781,1.970153 -1.38682,3.849917 -1.67366,5.857814 -0.18434,1.290402 -0.0648,2.675554 -0.2092,3.974944 -0.0451,0.405696 -0.46267,2.257036 -0.20921,2.510491 0.0986,0.09862 0.28034,0.01971 0.41841,0 1.85045,-0.264348 0.99227,-0.0098 2.7197,-1.464453 2.1096,-1.776503 3.44089,-2.609258 5.02098,-5.020982 2.26351,-3.454824 2.51661,-7.811273 3.34733,-11.715626 1.00378,-4.717806 2.55926,-9.302551 3.55653,-14.01691 0.65522,-3.097411 0.89744,-5.18727 1.04603,-8.159097 0.0209,-0.417893 0,-0.836832 0,-1.255246 0,-0.06974 0.0312,-0.271582 0,-0.209206 -3.28808,6.576165 -6.50555,15.244016 -7.32226,22.594421 -0.37509,3.375824 -0.47993,6.854158 -0.62763,10.251173 -0.0303,0.696701 0.0661,1.397857 0,2.092076 -0.10413,1.093409 -1.14568,5.598779 0.20921,6.276226 0.56136,0.280683 1.25525,0 1.88287,0 0.55789,0 1.15371,0.202205 1.67366,0 2.52593,-0.982305 3.8901,-3.278587 4.81178,-5.648605 0.12888,-0.331407 0.0546,-0.725816 0.2092,-1.046038 0.82751,-1.714127 1.88702,-3.309361 2.7197,-5.020982 0.42492,-0.873435 0.71936,-1.804977 1.04604,-2.7197 0.0524,-0.146849 0.14327,-0.559718 0.20921,-0.418415 1.43902,3.083626 1.23916,3.375496 2.30128,6.694644 0.57139,1.785601 1.05967,2.511761 1.88287,4.393361 0.15774,0.360556 0.90379,2.743684 0.20921,2.928906 -2.01083,0.53622 -8.53241,1.168394 -10.25117,-0.83683 -0.18713,-0.218307 -0.14684,-0.556149 -0.20921,-0.836832 -0.0107,-0.04801 -0.434,-1.658075 -0.20921,-1.882867 0.48291,-0.482913 3.90859,-0.209209 4.60257,-0.209209 4.89459,0 11.89872,-1.992294 14.64453,-6.485435 0.34498,-0.564507 0.40907,-1.258438 0.62762,-1.882868 0.57854,-1.652976 1.24295,-3.611872 0.83683,-5.439399 -0.41982,-1.889194 -3.36442,-1.673661 -4.81177,-1.673661 -1.86205,0 -3.61415,-0.714174 -5.4394,-1.046036 -0.99018,-0.180033 -1.96388,-0.04837 -2.92891,-0.209209 -0.63418,-0.105698 -1.24639,-0.32749 -1.88286,-0.418414 -4.74564,-0.677947 -9.47901,-0.05325 -14.22612,-0.418415 -0.77737,-0.0598 -1.5259,-0.336796 -2.30128,-0.418417 -2.08059,-0.219007 -4.18416,0 -6.27623,0 -2.78558,0 -5.64084,-0.230725 -8.36831,-0.83683 -6.25849,-1.390774 -11.8953,-4.505304 -17.78264,-6.903852 -2.20716,-0.899208 -4.47894,-1.632569 -6.69465,-2.510491 -1.48124,-0.586907 -2.90319,-1.319019 -4.39336,-1.882868 -1.09333,-0.413694 -2.25398,-0.632343 -3.347319,-1.046038 -4.245301,-1.60633 -4.080013,-1.987626 -8.159097,-3.34732 C 90.187805,44.986077 88.893906,44.763986 87.657987,44.352014 85.544058,43.64737 83.566764,42.48773 81.381758,42.050729 70.811016,39.936581 59.933479,38.912614 49.163787,38.912614 c -2.02234,0 -4.049472,-0.139141 -6.06702,0 -2.415609,0.166595 -8.354891,2.077212 -10.669588,3.138115 -1.077706,0.493948 -2.070502,1.158261 -3.138114,1.673661 -2.543003,1.227656 -5.307448,2.09659 -7.740682,3.556529 -3.49154,2.094924 -6.425568,5.368928 -8.577511,8.78672 -0.548605,0.871313 -0.934709,1.836791 -1.464454,2.719697 -0.680726,1.134544 -2.1783652,3.040028 -2.7196985,4.393361 -0.157539,0.393849 -0.1138253,0.841923 -0.2092076,1.255245 -0.6313638,2.73591 -0.5372444,5.370785 -0.2092076,8.159099 0.089998,0.764981 0.1501314,1.533294 0.2092076,2.301282 0.00938,0.121989 -0.014076,1.037394 0,1.046038 3.8846291,2.385298 7.9335061,4.492532 11.9248341,6.694644 0.679515,0.374904 0.971649,0.141798 1.67366,-0.209209 z"
       id="path74" />
  </g>
</svg>
