<?xml version="1.0" encoding="UTF-8" standalone="no"?>
<!-- Created with Inkscape (http://www.inkscape.org/) -->

<svg
   width="210mm"
   height="297mm"
   viewBox="0 0 210 297"
   version="1.1"
   id="svg5"
   inkscape:version="1.1.1 (3bf5ae0d25, 2021-09-20)"
   sodipodi:docname="year.svg"
   xmlns:inkscape="http://www.inkscape.org/namespaces/inkscape"
   xmlns:sodipodi="http://sodipodi.sourceforge.net/DTD/sodipodi-0.dtd"
   xmlns="http://www.w3.org/2000/svg"
   xmlns:svg="http://www.w3.org/2000/svg">
  <sodipodi:namedview
     id="namedview7"
     pagecolor="#ffffff"
     bordercolor="#666666"
     borderopacity="1.0"
     inkscape:pageshadow="2"
     inkscape:pageopacity="0.0"
     inkscape:pagecheckerboard="0"
     inkscape:document-units="mm"
     showgrid="false"
     inkscape:zoom="1.5554293"
     inkscape:cx="197.05171"
     inkscape:cy="341.0634"
     inkscape:window-width="2560"
     inkscape:window-height="1369"
     inkscape:window-x="-8"
     inkscape:window-y="-8"
     inkscape:window-maximized="1"
     inkscape:current-layer="layer1" />
  <defs
     id="defs2" />
  <g
     inkscape:label="Layer 1"
     inkscape:groupmode="layer"
     id="layer1">
    <path
       style="fill:none;stroke:#000000;stroke-width:0.264583px;stroke-linecap:butt;stroke-linejoin:miter;stroke-opacity:1"
       d="m 21.943299,84.711339 c 0.113402,-0.283506 0.183108,-0.588685 0.340206,-0.850516 0.501902,-0.836502 1.173511,-1.560854 1.701031,-2.381443 0.689032,-1.071828 1.339671,-2.168293 2.041237,-3.231957 4.833154,-7.327686 1.943306,-2.219844 4.252578,-6.974229 1.427459,-2.938886 2.11078,-3.488748 2.551546,-6.463916 0.0914,-0.616977 0,-1.247423 0,-1.871134 0,-1.474229 -0.03071,-2.948773 0,-4.422682 0.03808,-1.827742 0.451188,-4.496321 0.170103,-6.463916 -0.03943,-0.276014 -0.178496,-1.420323 -0.510309,-1.53093 -0.850516,-0.283503 -1.202331,1.37721 -1.530928,2.211343 -1.561157,3.962937 -2.02877,8.048315 -2.21134,12.247422 -0.108474,2.494896 -0.340206,4.976468 -0.340206,7.484536 0,1.853221 0.140619,3.956365 -0.340207,5.783506 -0.301307,1.144968 -0.680412,2.26804 -1.020618,3.40206 -0.220818,0.73606 -0.170103,-0.04992 -0.170103,0.680413 0,0.0567 -0.0369,0.213154 0,0.170103 1.567176,-1.828371 2.994854,-3.598219 4.762886,-5.273196 0.731022,-0.692547 1.496307,-1.326203 2.211341,-2.041236 0.384303,-0.384305 -0.10143,0.05071 0.680412,-0.340207 0.268967,-0.134482 1.281581,-1.099862 1.701031,-0.680413 1.011142,1.011142 0.489444,5.120775 0.340206,6.463919 -0.03757,0.338124 -0.240562,0.780055 0,1.020617 0.31483,0.31483 0.918944,0.340206 1.360825,0.340206 3.051934,0 3.341354,-1.458079 5.103093,-3.572166 0.308007,-0.369609 0.773081,-0.608057 1.020617,-1.020617 0.195696,-0.326157 0.282093,-0.71633 0.51031,-1.020619 0.32403,-0.432038 0.952952,-0.715182 1.190723,-1.19072 0.02535,-0.05072 -0.04009,-0.130011 0,-0.170104 0.207703,-0.207703 1.250415,0.05969 1.19072,0 -0.144561,-0.14456 -0.310737,-0.295857 -0.51031,-0.340206 -0.0073,-0.0016 -1.666679,-0.122672 -1.871133,0 -1.398683,0.83921 -2.35236,4.145378 -2.891753,5.273196 -0.393113,0.821962 -1.085615,1.896152 0.51031,2.041236 3.274814,0.29771 4.747281,-2.086504 5.103092,-4.932989 0.06912,-0.552911 0,-1.143275 0,-1.70103 0,-0.340207 0,-0.680413 0,-1.02062 0,-0.0567 0,-0.226803 0,-0.170103 0,0.551564 -1.472652,4.247856 -1.70103,4.932989 -0.145917,0.437756 0,1.24918 0,1.701033 0,0.113401 -0.08019,0.260017 0,0.340204 0.196197,0.196196 1.242888,-0.07182 1.360824,-0.170103 1.909852,-1.59154 3.710908,-3.014814 5.103093,-5.103093 0.495522,-0.743283 0.776308,-2.242166 0.850516,-1.871133 0.354465,1.77233 -0.511178,7.361195 -0.850516,9.015465 -0.190993,0.931095 -0.613011,1.801318 -0.850514,2.72165 -2.199061,8.521356 1.789099,-4.904582 -1.701033,5.953606 -0.143079,0.44514 -0.211754,0.911246 -0.340206,1.360826 -0.09852,0.344811 -0.08663,1.274194 -0.340204,1.020617 -0.453581,-0.453578 0.656428,-3.851725 0.850513,-4.592783 0.875901,-3.344341 1.951258,-6.665616 2.72165,-10.036082 0.249023,-1.089477 0.709046,-6.927069 1.871133,-7.314433 0.913937,-0.304644 2.931409,2.829134 3.061857,3.742267 0.495816,3.470701 -1.870329,4.855014 -4.252577,6.804125 -2.578981,2.110076 0.246139,0.217136 -1.360826,1.020617 -0.05071,0.02535 0.116313,0.01794 0.170103,0 0.459595,-0.153196 0.898859,-0.364423 1.360826,-0.510307 1.311109,-0.414036 2.495765,-0.56747 3.742267,-1.190723 1.57544,-0.78772 2.679168,-3.359613 3.402063,-4.592783 0.836006,-1.42613 1.812255,-2.773994 2.551546,-4.252576 0.240562,-0.481126 0.303419,-1.034394 0.51031,-1.530929 0.07863,-0.188712 0.259673,-0.322401 0.340206,-0.51031 0.09209,-0.214882 0.124254,-0.451168 0.170104,-0.680411 0.01111,-0.0556 0.007,-0.226367 0,-0.170103 -0.609124,4.872974 -1.099505,9.739408 -1.53093,14.628865 -0.284207,3.221024 -1.020617,6.465829 -1.020617,9.695876 0,0.170103 0,-0.340207 0,-0.51031 0,-3.352048 -0.164864,-3.364407 0.340204,-6.293813 0.785561,-4.556246 1.600293,-9.122812 2.72165,-13.608248 0.303019,-1.212077 0.540337,-3.794305 1.871136,-4.592783 0.955069,-0.573043 1.127016,-0.626872 1.530927,1.19072 0.221744,0.997852 0.136048,2.040231 0.170103,3.061856 0.111884,3.356534 -0.68866,4.525775 -3.402063,6.463919 -0.248467,0.177478 -0.596453,0.170831 -0.850514,0.340207 -0.368474,0.245647 -0.57777,0.850514 -1.020619,0.850514 -0.08019,0 0.104852,-0.123495 0.170103,-0.170104 0.332716,-0.237654 0.642184,-0.525597 1.02062,-0.68041 1.926807,-0.788242 3.725653,-1.008989 5.443296,-2.211343 1.904566,-1.333193 3.153508,-3.331673 4.592786,-5.103092 0.151696,-0.186704 0.390956,-0.301443 0.510307,-0.510308 0.13085,-0.228986 0.304022,-2.041239 0.680413,-2.041239 0.233786,0 -0.08962,0.46092 -0.170103,0.680413 -0.543753,1.482963 -1.303573,2.893997 -1.70103,4.42268 -0.327491,1.259575 -0.598432,4.994391 -0.680413,6.634022 -0.01429,0.285806 -0.09441,1.430142 0.51031,1.530927 0.670785,0.111797 1.658458,-0.931812 1.871133,-1.19072 2.235525,-2.721507 3.312274,-4.455118 4.082476,-7.824743 0.271468,-1.187672 0.1701,-6.23326 0.1701,-0.51031 0,2.494847 0,4.98969 0,7.484536 0,4.113316 0.484408,8.611794 -3.061853,11.567009 -0.604552,0.503794 -3.530492,1.350407 -3.572166,1.360827 -2.857151,0.714287 -2.060792,-4.338265 -0.850516,-5.4433 2.381382,-2.174303 5.310298,-3.487618 7.824742,-5.443299 0.382733,-0.29768 0.812715,-0.926116 1.190723,-1.19072 0.311605,-0.218125 0.729676,-0.265306 1.020617,-0.51031 0.730112,-0.614831 3.499929,-3.249046 4.252579,-4.252577 0.198371,-0.264498 0.276524,-0.616733 0.51031,-0.850516 0.400936,-0.400936 0.939368,-0.641308 1.360823,-1.020619 0.151958,-0.136761 0.195646,-0.36575 0.340207,-0.510308 1.401299,-1.401302 3.668686,-2.085112 5.443299,-2.891753 0.988121,-0.449148 3.589589,-1.003194 4.42268,-0.170103 1.841428,1.841429 2.008816,6.595597 1.190723,8.84536 C 99.226804,81.819586 99.1134,82.159793 99,82.499999 c -0.0567,0.113401 -0.123015,0.222486 -0.170103,0.340207 -0.228121,0.570304 -0.239541,0.850513 -0.170103,0.850513 0.160374,0 0.256153,-0.20362 0.340206,-0.340204 0.372351,-0.605072 0.75011,-1.214186 1.02062,-1.871135 1.55807,-1.752135 1.07844,-4.14197 1.87113,-6.12371 0.29255,-0.731377 0.83845,-1.336683 1.19072,-2.041239 0.30533,-0.610646 0.32913,-1.315527 1.19073,-1.530927 0.79787,-0.19947 0.79039,0.878639 1.02061,1.530927 0.62632,1.774555 0.53631,5.313338 0.17011,7.144332 -0.0314,0.157003 -0.50356,1.70103 0.1701,1.70103 2.99152,0 4.7345,-2.485319 5.7835,-4.93299 0.52208,-1.218179 0.68042,-2.241415 0.68042,-3.572166 0,-0.620887 -0.51346,-1.291291 -0.85052,-0.850514 -2.16655,2.83318 -2.72825,4.467302 -2.55154,7.824743 0.0671,1.274328 0.0806,1.692087 1.36082,2.381443 2.6529,1.428483 4.63655,-4.147151 5.10309,-5.613403 0.10315,-0.324191 -0.0226,-0.681167 0,-1.020619 0.0342,-0.512313 0.10224,-1.021982 0.1701,-1.530927 0.0456,-0.341873 0.12133,-0.679185 0.17011,-1.02062 0.008,-0.05613 0,-0.226803 0,-0.170103 0,1.474227 0,2.948456 0,4.422682 0,1.190721 -0.19576,2.397644 0,3.572164 0.0891,0.534823 0.31157,0.382304 0.51031,0.680413 1.14151,1.712275 3.03716,-1.796399 3.23195,-2.72165 0.41399,-1.966412 -0.25403,-5.785749 0.51031,-7.314432 0.10143,-0.202862 0,0.453607 0,0.680413 0,0.62371 0,1.24742 0,1.871133 0,0.514996 -0.60047,8.964221 1.53093,8.164949 2.48932,-0.933495 2.38144,-6.334911 2.38144,-8.505156 0,-0.743024 -0.0344,-1.859661 0,-1.871133 0.3272,-0.109066 0.68737,-0.08123 1.02062,-0.170103 0.51975,-0.138599 1.01197,-0.368776 1.53093,-0.51031 0.87851,-0.239593 1.98891,0.112855 2.89175,0 1.76433,-0.220541 3.49713,-0.532408 5.2732,-0.680413 1.51344,-0.126119 3.0844,0.177456 4.59278,0 0.40996,-0.04823 0.78156,-0.285649 1.19072,-0.340207 0.61824,-0.08243 1.26605,0.151273 1.87114,0 0.123,-0.03075 0.27301,-0.277616 0.34021,-0.170103 0.88098,1.409581 0.90537,2.874153 1.36082,4.422683 0.78589,2.672016 0.26084,0.0046 1.02062,2.891752 0.14715,0.5592 0.16608,1.149631 0.3402,1.70103 0.1265,0.400561 0.92582,2.116543 1.36083,2.551547 1.02126,1.021257 3.59048,-3.797231 3.74227,-4.252577 0.20046,-0.601405 0.21588,-1.249508 0.3402,-1.871135 0.15922,-0.796068 0.38988,-1.578589 0.51031,-2.381444 0.0757,-0.504663 0,-1.020617 0,-1.530926 0,-0.113403 0,-0.45361 0,-0.340207 0,4.515556 -0.0438,-2.840638 0.1701,2.72165 0.12647,3.288183 0.24755,6.576668 0.34021,9.865979 0.0161,0.57005 0.25161,5.736246 -0.34021,7.314432 -0.25958,0.692219 -0.75589,1.273244 -1.19072,1.871134 -1.27002,1.746279 -1.11763,1.888633 -2.89175,2.381443 -0.55714,0.154762 -1.12379,0.374163 -1.70103,0.340206 -0.43108,-0.02535 -0.83142,-0.270777 -1.19072,-0.510307 -1.45688,-0.971256 -1.54556,-1.668941 -0.1701,-3.231959 0.37478,-0.42589 4.50604,-3.580953 5.10309,-4.082476 3.5402,-2.973766 6.47838,-6.609577 9.35567,-10.206186 0.6977,-0.872127 1.17343,-1.849519 1.87113,-2.721647 0.22681,-0.283506 0.64231,-0.382979 0.85052,-0.680413 0.59958,-0.856551 0.84441,-2.569845 0.51031,-3.572166 -0.22681,-0.680413 -1.50519,0.20392 -2.04124,0.680413 -0.13401,0.119124 -0.0965,0.346798 -0.1701,0.51031 -0.43717,0.971484 -1.00458,1.887768 -1.36083,2.891753 -0.53121,1.49706 -1.38701,4.998387 -0.34021,6.463916 0.23993,0.335902 0.77999,0.299133 1.19073,0.340207 2.96221,0.296219 6.51059,-3.82986 7.99484,-6.123712 2.6794,-4.822915 -0.74744,1.121166 1.70103,-2.551547 0.0995,-0.14919 0.34021,-0.453607 0.17011,-0.510307 -0.17011,-0.0567 -0.0707,0.361117 -0.17011,0.510307 -0.24564,0.368475 -0.61842,0.643464 -0.85051,1.02062 -0.22632,0.367765 -0.31719,0.804487 -0.51031,1.19072 -0.3744,0.748797 -0.86452,1.440325 -1.19072,2.211342 -0.35229,0.832687 -1.09732,4.005774 -0.85052,4.252577 0.35135,0.351345 1.81184,-0.303853 2.04124,-0.51031 1.84565,-1.661086 2.38144,-4.638199 2.38144,-6.974226 0,-0.283506 0,-0.56701 0,-0.850516 0,-0.0567 0,-0.226804 0,-0.170104 0,1.469581 -0.44791,6.696425 0.68041,7.824743 0.16038,0.160374 0.46038,0.05501 0.68042,0 0.29622,-0.07406 0.62457,-0.134808 0.85051,-0.340207 0.41956,-0.381412 0.7393,-0.868521 1.02062,-1.360823 1.28468,-2.248191 1.03384,-5.563095 1.19072,-7.994846 0.0331,-0.512384 0.12362,-1.019588 0.17011,-1.530927 0.0103,-0.112937 0,-0.453609 0,-0.340206 0,1.637538 2.08827,6.415968 4.42268,5.443299 0.49377,-0.205737 0.88238,-0.611293 1.36082,-0.850516 0.0717,-0.03586 0.0899,-0.170104 0.1701,-0.170104 0.23379,0 -0.10135,0.456968 -0.1701,0.680414 -0.17409,0.565798 -0.33205,1.13653 -0.51031,1.70103 -0.32234,1.020736 -1.0679,2.749907 -0.68041,3.912372 0.0507,0.152143 0.18806,0.289491 0.34021,0.340204 0.16745,0.05582 3.38461,0.0097 3.40206,0 0.35677,-0.198207 1.15393,-0.843595 1.36082,-1.360824 0.90382,-2.259549 0.85915,-7.112857 0.68041,-9.525772 -0.30167,-4.072628 -2.35427,-7.887917 -4.25257,-11.396908 -2.32277,-4.293598 -6.87971,-10.200616 -11.22681,-12.757732 -5.5768,-3.280471 -14.90585,-3.164356 -21.26288,-3.742267 -1.98926,-0.180843 -3.96499,-0.492808 -5.95361,-0.680413 -6.32208,-0.596424 -12.71225,-0.51031 -19.05155,-0.51031 -11.75356,0 1.39326,0.106334 -10.88659,-0.340206 -3.3885,-0.123217 -6.81468,0 -10.20619,0 -4.686487,0 -9.435779,-0.12323 -14.118555,0 -7.506671,0.197546 -14.955925,1.179475 -22.453608,1.530929 -6.966288,0.326544 -13.951407,0.170103 -20.922681,0.170103 -2.041236,0 -4.082473,0 -6.12371,0 -1.020619,0 -2.049629,-0.130611 -3.061856,0 -1.14697,0.147995 -2.260495,0.495292 -3.402061,0.680411 -0.958051,0.15536 -1.933571,0.185661 -2.891753,0.340206 -0.801477,0.12927 -1.577767,0.395499 -2.381443,0.51031 -0.392918,0.05613 -0.805665,-0.09626 -1.190722,0 -0.541767,0.135443 -1.01455,0.467786 -1.530928,0.680413 -0.447964,0.184454 -0.897794,0.367837 -1.360824,0.51031 -0.276335,0.08502 -0.59192,0.0408 -0.850516,0.170103 -0.324734,0.162367 -0.56952,0.450506 -0.850516,0.680411 -2.192499,1.793864 0.156483,-0.174893 -2.891752,3.231959 -1.256795,1.404652 -2.559854,2.769738 -3.912371,4.082473 -0.578279,0.561272 -1.343344,0.921938 -1.871134,1.53093 -0.981814,1.132861 -1.360825,7.66908 -1.360825,9.355669 0,1.343932 -0.103036,2.743007 0,4.082473 0.105016,1.365216 0.360222,1.711055 0.680412,3.23196 0.51023,2.423591 1.270697,4.674877 2.21134,6.974226 0.565275,1.381781 1.88081,4.772562 2.891753,5.783505 0.603347,0.603348 1.48405,0.608087 2.21134,0.850517 0.437594,0.145865 0.988421,0.305728 1.530928,0.170103 0.258345,-0.06459 0.59799,-0.384048 0.850515,-0.51031 0.258597,-0.129299 0.570028,-0.09998 0.850516,-0.170103 z"
       id="path177" />
  </g>
</svg>
